<svg width="25" height="20" viewBox="0 0 25 20" fill="none" xmlns="http://www.w3.org/2000/svg">
<path d="M23.8477 14.582C23.9492 14.0312 23.9492 13.4688 23.8477 12.918L24.8555 12.3359C24.9727 12.2695 25.0234 12.1328 24.9844 12.0039C24.7227 11.1602 24.2734 10.3945 23.6875 9.76172C23.5977 9.66406 23.4531 9.64062 23.3359 9.70703L22.3281 10.2891C21.9023 9.92578 21.4141 9.64453 20.8867 9.45703V8.29297C20.8867 8.16016 20.793 8.04297 20.6641 8.01562C19.793 7.82031 18.9062 7.82812 18.0781 8.01562C17.9492 8.04297 17.8555 8.16016 17.8555 8.29297V9.45703C17.3281 9.64453 16.8398 9.92578 16.4141 10.2891L15.4062 9.70703C15.293 9.64062 15.1445 9.66406 15.0547 9.76172C14.4688 10.3945 14.0195 11.1602 13.7578 12.0039C13.7188 12.1328 13.7734 12.2695 13.8867 12.3359L14.8945 12.918C14.793 13.4688 14.793 14.0312 14.8945 14.582L13.8867 15.1641C13.7695 15.2305 13.7188 15.3672 13.7578 15.4961C14.0195 16.3398 14.4688 17.1016 15.0547 17.7383C15.1445 17.8359 15.2891 17.8594 15.4062 17.793L16.4141 17.2109C16.8398 17.5742 17.3281 17.8555 17.8555 18.043V19.207C17.8555 19.3398 17.9492 19.457 18.0781 19.4844C18.9492 19.6797 19.8359 19.6719 20.6641 19.4844C20.793 19.457 20.8867 19.3398 20.8867 19.207V18.043C21.4141 17.8555 21.9023 17.5742 22.3281 17.2109L23.3359 17.793C23.4492 17.8594 23.5977 17.8359 23.6875 17.7383C24.2734 17.1055 24.7227 16.3398 24.9844 15.4961C25.0234 15.3672 24.9688 15.2305 24.8555 15.1641L23.8477 14.582ZM19.375 15.6445C18.3281 15.6445 17.4805 14.793 17.4805 13.75C17.4805 12.707 18.332 11.8555 19.375 11.8555C20.418 11.8555 21.2695 12.707 21.2695 13.75C21.2695 14.793 20.4219 15.6445 19.375 15.6445ZM8.75 10C11.5117 10 13.75 7.76172 13.75 5C13.75 2.23828 11.5117 0 8.75 0C5.98828 0 3.75 2.23828 3.75 5C3.75 7.76172 5.98828 10 8.75 10ZM16.6094 18.8477C16.5195 18.8008 16.4297 18.7461 16.3438 18.6953L16.0352 18.875C15.8008 19.0078 15.5352 19.082 15.2695 19.082C14.8438 19.082 14.4336 18.9023 14.1406 18.5898C13.4258 17.8164 12.8789 16.875 12.5703 15.8711C12.3555 15.1797 12.6445 14.4492 13.2695 14.0859L13.5781 13.9062C13.5742 13.8047 13.5742 13.7031 13.5781 13.6016L13.2695 13.4219C12.6445 13.0625 12.3555 12.3281 12.5703 11.6367C12.6055 11.5234 12.6562 11.4102 12.6953 11.2969C12.5469 11.2852 12.4023 11.25 12.25 11.25H11.5977C10.7305 11.6484 9.76562 11.875 8.75 11.875C7.73438 11.875 6.77344 11.6484 5.90234 11.25H5.25C2.35156 11.25 0 13.6016 0 16.5V18.125C0 19.1602 0.839844 20 1.875 20H15.625C16.0195 20 16.3867 19.875 16.6875 19.668C16.6406 19.5195 16.6094 19.3672 16.6094 19.207V18.8477Z" fill="#1687D9"/>
</svg>
