<svg width="25" height="20" viewBox="0 0 25 20" fill="none" xmlns="http://www.w3.org/2000/svg">
<path d="M9.96211 10.2207C10.2063 10.4648 10.602 10.4648 10.8461 10.2207L11.2879 9.77891C11.532 9.53477 11.532 9.13906 11.2879 8.89492L9.89258 7.5L11.2875 6.10469C11.5316 5.86055 11.5316 5.46484 11.2875 5.2207L10.8457 4.77891C10.6016 4.53477 10.2059 4.53477 9.96172 4.77891L7.68281 7.05781C7.43867 7.30195 7.43867 7.69766 7.68281 7.9418L9.96211 10.2207ZM13.7125 9.7793L14.1543 10.2211C14.3984 10.4652 14.7941 10.4652 15.0383 10.2211L17.3172 7.94219C17.5613 7.69805 17.5613 7.30234 17.3172 7.0582L15.0383 4.7793C14.7941 4.53516 14.3984 4.53516 14.1543 4.7793L13.7125 5.22109C13.4684 5.46523 13.4684 5.86094 13.7125 6.10508L15.1074 7.5L13.7125 8.89531C13.4684 9.13945 13.4684 9.53516 13.7125 9.7793ZM24.375 16.25H14.9039C14.875 17.0238 14.3293 17.5 13.625 17.5H11.25C10.5199 17.5 9.96016 16.8176 9.96992 16.25H0.625C0.28125 16.25 0 16.5312 0 16.875V17.5C0 18.875 1.125 20 2.5 20H22.5C23.875 20 25 18.875 25 17.5V16.875C25 16.5312 24.7188 16.25 24.375 16.25ZM22.5 1.875C22.5 0.84375 21.6562 0 20.625 0H4.375C3.34375 0 2.5 0.84375 2.5 1.875V15H22.5V1.875ZM20 12.5H5V2.5H20V12.5Z" fill="#1687D9"/>
</svg>
