<svg width="25" height="19" viewBox="0 0 25 19" fill="none" xmlns="http://www.w3.org/2000/svg">
<path d="M24.2676 10.2061L16.0645 18.4092C15.332 19.1417 14.0625 18.629 14.0625 17.5792V12.8917H7.42188C6.77246 12.8917 6.25 12.3692 6.25 11.7198V7.03229C6.25 6.38287 6.77246 5.86041 7.42188 5.86041H14.0625V1.17291C14.0625 0.127992 15.3271 -0.389587 16.0645 0.342835L24.2676 8.54596C24.7217 9.00494 24.7217 9.74713 24.2676 10.2061ZM9.375 18.1651V16.212C9.375 15.8897 9.11133 15.626 8.78906 15.626H4.6875C3.82324 15.626 3.125 14.9278 3.125 14.0635V4.68854C3.125 3.82428 3.82324 3.12604 4.6875 3.12604H8.78906C9.11133 3.12604 9.375 2.86237 9.375 2.5401V0.586976C9.375 0.26471 9.11133 0.0010385 8.78906 0.0010385H4.6875C2.09961 0.0010385 0 2.10065 0 4.68854V14.0635C0 16.6514 2.09961 18.751 4.6875 18.751H8.78906C9.11133 18.751 9.375 18.4874 9.375 18.1651Z" fill="#1687D9"/>
</svg>
