<svg width="50" height="50" viewBox="0 0 50 50" fill="none" xmlns="http://www.w3.org/2000/svg">
<circle cx="25" cy="25" r="25" fill="#D8DEE7"/>
<path d="M32.4062 15.125H28.5C28.5 13.4014 27.0986 12 25.375 12C23.6514 12 22.25 13.4014 22.25 15.125H18.3438C17.0498 15.125 16 16.1748 16 17.4688V34.6562C16 35.9502 17.0498 37 18.3438 37H32.4062C33.7002 37 34.75 35.9502 34.75 34.6562V17.4688C34.75 16.1748 33.7002 15.125 32.4062 15.125ZM25.375 13.9531C26.0244 13.9531 26.5469 14.4756 26.5469 15.125C26.5469 15.7744 26.0244 16.2969 25.375 16.2969C24.7256 16.2969 24.2031 15.7744 24.2031 15.125C24.2031 14.4756 24.7256 13.9531 25.375 13.9531ZM31.293 25.2715L24.3105 32.1953C24.0811 32.4248 23.71 32.4199 23.4805 32.1904L19.4473 28.123C19.2178 27.8936 19.2227 27.5225 19.4521 27.293L20.8389 25.916C21.0684 25.6865 21.4395 25.6914 21.6689 25.9209L23.915 28.1865L29.0908 23.0498C29.3203 22.8203 29.6914 22.8252 29.9209 23.0547L31.2979 24.4414C31.5273 24.6758 31.5225 25.042 31.293 25.2715Z" fill="#4E5156"/>
</svg>
